<svg id="Layer_1" enable-background="new 0 0 512 512" height="512" viewBox="0 0 512 512" width="512" xmlns="http://www.w3.org/2000/svg"><g><g><path clip-rule="evenodd" d="m32.214 15h447.572v482h-447.572z" fill="#fff4f4" fill-rule="evenodd"/></g><path clip-rule="evenodd" d="m256 15h223.786v482h-223.786z" fill="#f6efea" fill-rule="evenodd"/><g><path d="m473.34 509.83h-439.851c-8.284 0-15-6.716-15-15v-117.401c0-5.729 3.263-10.956 8.408-13.474 1.202-.588 2.534-1.25 3.98-1.968 17.263-8.573 49.396-24.532 76.783-24.532 16.685 0 31.194 7.53 43.995 14.173 10.702 5.555 20.811 10.801 30.175 10.801s19.473-5.246 30.176-10.801c12.8-6.643 27.309-14.173 43.995-14.173 16.685 0 31.193 7.529 43.994 14.173 10.703 5.555 20.812 10.801 30.176 10.801s19.473-5.246 30.176-10.801c12.801-6.643 27.309-14.173 43.995-14.173s31.194 7.53 43.995 14.173c10.703 5.555 20.812 10.801 30.176 10.801 4.093 0 8.008 1.673 10.837 4.63s4.328 6.941 4.148 11.03l-5.17 117.401c-.355 8.02-6.96 14.34-14.988 14.34z" fill="#7dd5f4"/></g><path d="m489.348 367.059c-2.83-2.957-6.745-4.63-10.837-4.63-9.364 0-19.473-5.246-30.176-10.801-12.8-6.643-27.309-14.173-43.995-14.173s-31.194 7.53-43.995 14.173c-10.703 5.555-20.812 10.801-30.176 10.801s-19.473-5.246-30.176-10.801c-12.801-6.644-27.309-14.173-43.994-14.173v172.375h217.34c8.027 0 14.632-6.32 14.985-14.34l5.17-117.401c.182-4.089-1.316-8.073-4.146-11.03z" fill="#4793ff"/><g><g><path d="m367.319 498.88h-222.637c-8.284 0-15-6.716-15-15v-26.918c0-49.911 29.631-95.281 75.488-115.586 1.912-.847 3.981-1.284 6.072-1.284l89.515.001c2.092 0 4.16.438 6.073 1.284 45.858 20.305 75.489 65.675 75.489 115.585v26.918c0 8.284-6.715 15-15 15z" fill="#ff8856"/></g></g><path d="m306.83 341.377c-1.913-.847-3.981-1.284-6.073-1.284h-44.757v158.787h111.319c8.284 0 15-6.716 15-15v-26.918c0-49.91-29.631-95.28-75.489-115.585z" fill="#ff435b"/><path d="m203.457 72.516c-14.756-2.464-29.591.961-41.77 9.651-4.934 3.521-9.179 7.744-12.664 12.493-4.987-3.135-10.488-5.501-16.371-6.96-14.521-3.603-29.576-1.336-42.392 6.384-7.096 4.274-9.384 13.492-5.109 20.589 4.275 7.095 13.494 9.383 20.589 5.108 5.953-3.585 12.946-4.635 19.687-2.965 5.71 1.417 10.658 4.651 14.219 9.22 1.771 4.954 6.094 8.83 11.652 9.759 3.624.604 7.587-.15 10.735-2.046 4.826-2.907 7.421-8.101 7.247-13.359 1.631-5.559 5.043-10.386 9.833-13.803 5.656-4.036 12.544-5.627 19.398-4.481 8.172 1.361 15.902-4.15 17.268-12.322 1.365-8.172-4.152-15.902-12.322-17.268z" fill="#00429d"/><path d="m334.718 22.449c-3.976 2.19-6.747 6.063-7.535 10.534-.788 4.47.49 9.057 3.477 12.475l26.92 30.805-14.761 38.153c-1.638 4.233-1.271 8.98.999 12.912 2.27 3.931 6.197 6.623 10.683 7.321l40.422 6.294 13.218 38.716c1.466 4.296 4.799 7.696 9.065 9.249 4.264 1.552 9.005 1.09 12.89-1.259l35.01-21.161 14.679 8.873v-160.361h-131.545z" fill="#ff8856"/><g><path d="m479.786 512h-447.572c-8.284 0-15-6.716-15-15v-482c0-8.284 6.716-15 15-15h447.571c8.284 0 15 6.716 15 15v482c.001 8.284-6.715 15-14.999 15zm-432.572-30h417.571v-452h-417.571z" fill="#f6efea"/></g><g><path d="m256 378.874c-45.812 0-83.083-37.271-83.083-83.083 0-36.491 23.648-67.564 56.425-78.696 8.371-2.843 109.741 32.885 109.741 78.696 0 45.812-37.271 83.083-83.083 83.083z" fill="#ffe4c1"/></g><path d="m256 223.903v154.97c45.812 0 83.083-37.271 83.083-83.083 0-32.311-50.425-59.603-83.083-71.887z" fill="#fdd1a3"/><path d="m256 212.708c-10.635 0-20.799 2.031-30.154 5.688-.128 1.872-.2 3.749-.2 5.617 0 45.394 36.931 82.324 82.324 82.324 10.699 0 21.11-2.063 30.99-6.083.079-1.479.123-2.966.123-4.464 0-45.811-37.271-83.082-83.083-83.082z" fill="#a34f3e"/><path d="m256 212.708v75.095c14.183 11.577 32.277 18.535 51.97 18.535 10.699 0 21.11-2.063 30.99-6.083.079-1.479.123-2.966.123-4.464 0-45.812-37.271-83.083-83.083-83.083z" fill="#873f2e"/><path d="m479.786 0h-223.786v30h208.786v452h-208.786v30h223.786c8.284 0 15-6.716 15-15v-482c0-8.284-6.716-15-15-15z" fill="#eee1dc"/></g></svg>