<svg version="1.1" xmlns="http://www.w3.org/2000/svg" xlink="http://www.w3.org/1999/xlink" x="0px" y="0px"
    viewBox="0 0 74 74" space="preserve">
		<path fill="#222" d="m37 70.581a1 1 0 0 1 -.825-.435l-34-49.617a1 1 0 0 1 .825-1.566h68a1 1 0 0 1 .825 1.566l-34 49.617a1 1 0 0 1 -.825.435zm-32.1-49.618 32.1 46.849 32.1-46.849z"/><path fill="#222" d="m37 70.581a1 1 0 0 1 -.963-.732l-13.837-49.617a1 1 0 0 1 .963-1.269h27.67a1 1 0 0 1 .963 1.269l-13.833 49.617a1 1 0 0 1 -.963.732zm-12.516-49.618 12.516 44.894 12.516-44.894z"/><path fill="#222" d="m71 20.963h-68a1 1 0 0 1 -.845-1.534l9.833-15.544a1 1 0 0 1 .845-.466h48.712a1 1 0 0 1 .855.481l9.455 15.544a1 1 0 0 1 -.855 1.519zm-66.185-2h64.407l-8.24-13.544h-47.6z"/><path fill="#222" d="m50.833 20.963h-27.666a1 1 0 0 1 -.922-1.387l6.533-15.544a1 1 0 0 1 .922-.613h14.734a1 1 0 0 1 .924.62l6.4 15.544a1 1 0 0 1 -.925 1.38zm-26.161-2h24.668l-5.576-13.544h-13.4z"/>
    </svg>