<svg xmlns="http://www.w3.org/2000/svg" viewBox="0 0 64 64">
    <path fill="#4d4d4d" d="M55.04 37.21V5.12a1.28 1.28 0 1 0-2.56 0v32.1a8.96 8.96 0 0 0 0 17.73v3.93a1.28 1.28 0 0 0 2.56 0v-3.93a8.96 8.96 0 0 0 0-17.74zM33.28 10.33v-5.2a1.28 1.28 0 1 0-2.56 0v5.2a8.96 8.96 0 0 0 0 17.74v30.8a1.28 1.28 0 0 0 2.56 0v-30.8a8.96 8.96 0 0 0 0-17.74zm-21.76 19.2V5.13a1.28 1.28 0 1 0-2.56 0v24.4a8.96 8.96 0 0 0 0 17.74v11.6a1.28 1.28 0 0 0 2.56 0v-11.6a8.96 8.96 0 0 0 0-17.74zm42.24 22.95a6.4 6.4 0 1 0 0-12.8 6.4 6.4 0 0 0 0 12.8zM32 25.6a6.4 6.4 0 1 0 0-12.8 6.4 6.4 0 0 0 0 12.8zM10.24 44.8a6.4 6.4 0 1 0 0-12.8 6.4 6.4 0 0 0 0 12.8z" fillRule="evenodd"></path>
</svg>