<svg version="1.1" xmlns="http://www.w3.org/2000/svg" xlink="http://www.w3.org/1999/xlink" x="0px" y="0px"
    viewBox="0 0 22 22" space="preserve">
		<path fill="#111" d="M3 10v8c0 1.1.9 2 2 2h12a2 2 0 0 0 2-2v-8l1 1H2l1-1zm17 .73V18A3 3 0 0 1 17 21H5a3 3 0 0 1-3-3v-7.27A2 2 0 0 1 1 9V7c0-1.1.9-2 2-2h16a2 2 0 0 1 2 2v2a2 2 0 0 1-1 1.73zM10.5 6v4h1V6h-1zm0 14h1v-9h-1v9zM11 1.34a3 3 0 1 1 0 3.32 3 3 0 1 1 0-3.32zM2 9a1 1 0 0 0 1 1h16a1 1 0 0 0 1-1V7a1 1 0 0 0-1-1H3a1 1 0 0 0-1 1v2zm8.5-6a2 2 0 1 0-4 0 2 2 0 0 0 4 0zm5 0a2 2 0 1 0-4 0 2 2 0 0 0 4 0z"></path>
    </svg>