<svg version="1.1" xmlns="http://www.w3.org/2000/svg" xlink="http://www.w3.org/1999/xlink" x="0px" y="0px"
		viewBox="0 0 512 512" space="preserve">
		<g>
			<path fill="#FFDA2D" d="M390,195c0,29.099-6.301,56.999-18.6,83.399c-3.6,7.5-12.599,10.501-20.099,7.2   c-7.5-3.6-10.801-12.599-7.202-20.099C354.6,243.3,360,219.6,360,195c0-90.901-74.099-165-165-165c-45.601,0-86.7,18.6-116.7,48.3   C48.6,108.3,30,149.399,30,195c0,90.899,74.099,165,165,165c25.201,0,49.2-5.4,71.7-16.5c7.5-3.301,16.199-0.3,19.799,7.2   s0.601,16.199-6.899,19.799C253.2,383.399,224.7,390,195,390C87.599,390,0,302.399,0,195C0,141.299,21.899,92.399,57.299,57.299   C92.401,21.899,141.301,0,195,0C302.401,0,390,87.599,390,195z"/>
			<path fill="#FFDA2D" d="M300,195c0,16.5-3.6,32.399-11.1,47.1c-3.6,7.2-12.599,10.199-20.099,6.599S258.3,235.8,262.2,228.6   c5.099-10.501,7.8-21.899,7.8-33.6c0-41.4-33.6-75-75-75c-20.7,0-39.6,8.399-53.101,21.899C128.401,155.4,120,174.3,120,195   c0,41.4,33.6,75,75,75c15.3,0,30.3-4.501,42.9-13.5c6.601-4.799,15.901-2.999,20.7,3.9c4.801,6.599,2.999,16.199-3.6,20.7   c-17.701,12.299-38.401,18.9-60,18.9c-57.9,0-105-47.1-105-105c0-28.801,11.7-55.201,30.901-74.101   C139.799,101.7,166.199,90,195,90C252.9,90,300,137.1,300,195z"/>
			<path fill="#FDBF00" d="M90,195c0-28.801,11.7-55.201,30.901-74.101l20.999,21C128.401,155.4,120,174.3,120,195   c0,41.4,33.6,75,75,75c15.3,0,30.3-4.501,42.9-13.5c6.601-4.799,15.901-2.999,20.7,3.9c4.801,6.599,2.999,16.199-3.6,20.7   c-17.701,12.299-38.401,18.9-60,18.9C137.1,300,90,252.9,90,195z"/>
			<path fill="#FDBF00" d="M279.6,370.499C253.2,383.399,224.7,390,195,390C87.599,390,0,302.399,0,195   C0,141.299,21.899,92.399,57.299,57.299l21,21C48.6,108.3,30,149.399,30,195c0,90.899,74.099,165,165,165   c25.201,0,49.2-5.4,71.7-16.5c7.5-3.301,16.199-0.3,19.799,7.2S287.1,366.899,279.6,370.499z"/>
			<g>
				<path fill="#537983" d="M502.935,301.099L184.636,165.2c-5.402-2.401-12.001-1.201-16.501,2.999    c-4.199,4.501-5.4,10.8-2.999,16.5L301.034,503c2.401,5.4,7.8,9,13.801,9h1.5c6.301-0.601,11.7-5.4,13.2-11.7l31.5-139.2    l139.2-31.5c6.301-1.5,11.1-6.899,11.7-13.2C512.536,309.8,508.936,303.8,502.935,301.099z"/>
			</g>
			<path fill="#3E5959" d="M361.034,361.099l-31.5,139.2c-1.5,6.301-6.899,11.1-13.2,11.7h-1.5c-6,0-11.4-3.6-13.801-9   L165.135,184.699c-2.401-5.7-1.199-11.999,2.999-16.5L361.034,361.099z"/>
		</g>

	</svg>