<svg xmlns="http://www.w3.org/2000/svg" viewBox="0 0 64 64">
    <path fill="#ef5464" d="M25.62 54.16a6.4 6.4 0 0 0 6.11 4.5h21.34a6.4 6.4 0 0 0 6.4-6.4v-32a6.4 6.4 0 0 0-6.4-6.4h-11.2l6.78 25.3A8.53 8.53 0 0 1 42.6 49.6l-17 4.56zM41.3 11.73h11.77a8.53 8.53 0 0 1 8.53 8.54v32a8.53 8.53 0 0 1-8.53 8.53H31.73a8.54 8.54 0 0 1-8.18-6.09l-1.54.42a8.53 8.53 0 0 1-10.45-6.04L3.27 18.18A8.53 8.53 0 0 1 9.32 7.73l20.6-5.52a8.53 8.53 0 0 1 10.46 6.03l.93 3.49zm-35.96 5.9l8.28 30.91a6.4 6.4 0 0 0 7.84 4.52l20.6-5.52a6.4 6.4 0 0 0 4.53-7.84L38.3 8.8a6.4 6.4 0 0 0-7.84-4.53L9.86 9.79a6.4 6.4 0 0 0-4.52 7.84z"></path>
</svg>