<svg version="1.1" xmlns="http://www.w3.org/2000/svg" xlink="http://www.w3.org/1999/xlink" x="0px" y="0px"
    viewBox="0 0 16 16" space="preserve">
		<path  fill="#fff" d="M11.02 2.22v-.89C11.02.6 10.44 0 9.72 0H6.28c-.7 0-1.29.6-1.29 1.33v.9H.23v.88h1.73v10.67A2.2 2.2 0 0 0 4.12 16h7.76c1.2 0 2.16-1 2.16-2.22V3.1h1.73v-.89h-4.75zm-5.18-.89c0-.24.2-.44.43-.44h3.46c.23 0 .43.2.43.44v.9H5.84v-.9zm7.34 12.45c0 .73-.58 1.33-1.3 1.33H4.12c-.72 0-1.3-.6-1.3-1.33V3.1h10.36v10.67zm-7.2-8.8h.86v8.2h-.86v-8.2zm3 0h.86v8.2h-.86v-8.2z" fillRule="evenodd"></path>
    </svg>