<svg xmlns="http://www.w3.org/2000/svg" viewBox="0 0 256 244">

    <path fill="#ffc100" stroke="#ffe20a" stroke-width="8" d="M24,70.39L46,211s2.722,20.157,26,22c23.26,1.841,100.108,1.709,116,1,0,0,15.965-3.227,22-23L232,70.39,176,90s-5.134,1.741-8-2-40-58-40-58L87.831,89.137A15.437,15.437,0,0,1,80,89C75.721,87.8,24,70.39,24,70.39Z"/>
    <circle fill="#fb4f54" stroke="#ffe51b" stroke-width="9" cx="31" cy="77" r="24"/>
    <path fill="#ffb200" d="M45,150l158,50s-2.352,26.52-21,27-111-1-111-1-14.609-2.7-17-17C50.176,186.131,45,150,45,150Z"/>
    <circle fill="#fb4f54" stroke="#ffe51b" stroke-width="9" cx="224" cy="77" r="24"/>
    <circle fill="#fb4f54" stroke="#ffe51b" stroke-width="9" cx="128.5" cy="35.5" r="28.5"/>
    <path fill="#fff" d="M68.789,191.493L61,133.977s2.506-6.219,9.087-6.535,7.788,7.843,7.788,7.843l2.6,20.914s1.674,4.754,5.192,0,14.279-26.143,14.279-26.143,5.661-4.365,10.385-2.614,3.894,7.843,3.894,7.843L83.067,194.107s-4.3,3.444-7.788,2.615S69.756,195.423,68.789,191.493Z"/>
    <path fill="#fff" d="M120.712,132.67l-11.683,57.516s-0.033,8.369,7.788,6.536c0,0,6.765,1.237,9.087-6.536s10.384-54.9,10.384-54.9,1.826-6.682-5.192-7.843S121.283,129.923,120.712,132.67Z"/>
    <path fill="#fff" d="M147.971,132.67l-10.384,57.516a6.09,6.09,0,0,0,6.49,6.536c6.911,0.076,9.587-3.269,10.385-7.843s2.6-13.072,2.6-13.072l1.3-3.922,3.894-26.143a2.823,2.823,0,0,1,2.6-2.614c2.443-.208,11.683,0,11.683,0a6.269,6.269,0,0,1,2.6,5.228c-0.258,3.267-1.221,7.928-5.192,7.843s-12.981,0-12.981,0l-2.6,15.686h15.577s21.306-4.236,22.067-24.836-18.173-19.607-18.173-19.607H154.462S148.744,129.251,147.971,132.67Z"/>
</svg>