<svg xmlns="http://www.w3.org/2000/svg" viewBox="0 0 64 64">
    <path fill="#222" d="M2.13 32a29.86 29.86 0 1 0 59.73 0 29.86 29.86 0 0 0-59.73 0zM0 32a32 32 0 1 1 64 0 32 32 0 0 1-64 0z"></path>
    <path fill="#222" d="M42.82 4.07l-.79-1.99c-2.4.96-4.64 2.15-6.26 3.45-2.48 2-3.6 4.38-2.38 6.88.76 1.52 1.74 2.45 3.12 2.8.92.23 1.2.22 3.33-.02 1.23-.14 2.1-.18 3.17-.12 1.76.11 2.92.48 3.6.99.36.26.51.5.55.68.01.07-.05.26-.28.55-.7.85-2.13 1.42-4.06 1.42-.6 0-1.15-.11-1.9-.38l-.6-.22-.67-.26c-1.51-.57-2.65-.89-4.1-1.05-4.04-.44-6.19.22-8.63 2.75-2.12 2.2-3.1 5.27-2.95 9 .17 4.7 3.18 7.69 7.83 7.74a72.94 72.94 0 0 1 1.09.02c.69.02 1.36.05 1.99.1 1 .08 1.77.2 2.09.32 1.16.44 1.9 1.31 2.31 2.78.03.12 0 .72-.15 2.57-.1 1.16-.15 1.93-.17 2.75-.09 4.16.87 7.02 3.94 8.15 2.93 1.07 5.79-.2 8.44-2.97a32.22 32.22 0 0 0 4.99-7.37A26.73 26.73 0 0 0 58.66 35c.3-1.75.48-3.65.48-4.18 0-2.02-1-3.23-3.36-5.16-1.4-1.16-1.74-1.48-1.86-1.7-.21-.43-.21-.7-.15-.78.08-.11.22-.19.66-.19.47 0 1.1.12 2.09.37l.63.17c1.62.44 4 .68 5.33.23l-1.39-4.04a6.4 6.4 0 0 1-1.56-.09l2.25 2.1c-.97.34-3.33-.06-4.08-.26-1.12-.3-2.28-.61-3.27-.61-1.33 0-2.03.57-2.38 1.05-.58.78-.59 1.9-.03 3 .89 1.77 4.99 3.57 4.99 5.9 0 .07-.35 6.53-2.58 10.86-2.23 4.34-6.54 10.88-10.8 9.31-4.27-1.56-1.75-10.07-2.3-12.03-.58-2.1-1.8-3.52-3.62-4.2-1.53-.57-5.61-.57-5.9-.58-3.5-.04-5.58-2.11-5.72-5.69-.12-3.18.68-5.68 2.36-7.43 1.97-2.04 3.46-2.48 6.86-2.11 3.39.37 4.88 1.92 7.5 1.92 2.63 0 4.62-.87 5.71-2.2.62-.75.87-1.58.72-2.32-.2-1.06-1.38-3.1-6.1-3.38-4.73-.3-6.36 1.52-7.84-1.48-1.47-3 3.77-5.92 7.52-7.4zM.4 32.9a11.82 11.82 0 0 0 2.8 4.17l1.47 1.42A9.18 9.18 0 0 1 7 42.37a8.14 8.14 0 0 1-.35 5.32 10.56 10.56 0 0 1-.63 1.36l-.55.91 1.83 1.1.55-.9c.2-.35.5-.94.8-1.72.82-2.2 1.08-4.5.38-6.7A11.27 11.27 0 0 0 6.2 37c-.35-.36-1.46-1.41-1.5-1.45a8.13 8.13 0 0 1-.75-.83 13.57 13.57 0 0 1-1.25-1.9 4.64 4.64 0 0 1-.28-.6l-.33-1-2.03.67.34 1.01z"></path>
</svg>