<svg height="512pt" viewBox="0 -10 512 511" width="512pt" xmlns="http://www.w3.org/2000/svg"><g fill-rule="evenodd"><path d="m316.289062 196.058594v195.5625h180.261719c8.5 0 15.449219-6.945313 15.449219-15.4375v-180.125zm0 0" fill="#e6e6e6"/><path d="m316.289062.5v195.558594h195.710938v-180.121094c0-8.492188-6.949219-15.4375-15.449219-15.4375zm0 0" fill="#808080"/><path d="m467.875 15.9375v180.121094h44.125v-180.121094c0-8.492188-6.949219-15.4375-15.449219-15.4375h-44.121093c8.496093 0 15.445312 6.945312 15.445312 15.4375zm0 0" fill="#666"/><path d="m467.875 196.058594v180.125c0 8.492187-6.949219 15.4375-15.445312 15.4375h44.121093c8.5 0 15.449219-6.945313 15.449219-15.4375v-180.125zm0 0" fill="#c2c7cc"/><path d="m316.289062.5v195.558594h-195.742187v-180.121094c0-8.492188 6.949219-15.4375 15.445313-15.4375zm0 0" fill="#e6e6e6"/><path d="m316.289062 391.617188v-195.558594h-195.742187v180.125c0 8.492187 6.949219 15.4375 15.445313 15.4375h180.296874zm0 0" fill="#808080"/><path d="m61.90625 220.570312-8.144531 78.492188 68.550781 8.9375 62.417969-8.9375-9.429688-78.492188-54.753906-24.511718zm0 0" fill="#fcc368"/><path d="m50.109375 334.078125-9.429687 90.570313 77.925781 24.351562 81.222656-24.351562-3.96875-33.03125-6.921875-57.539063-69.691406-17.507813zm0 0" fill="#fcc368"/><path d="m199.828125 424.648438h-159.441406c-7.359375 0-13.347657 5.984374-13.347657 13.335937v18.46875l95.273438 17.523437 91.15625-17.523437v-18.46875c0-7.351563-5.988281-13.335937-13.347656-13.335937zm0 0" fill="#ffdda6"/><path d="m213.46875 456.457031h-195.949219c-9.632812 0-17.519531 7.878907-17.519531 17.507813s7.886719 17.535156 17.519531 17.535156h205.46875c9.636719 0 17.519531-7.90625 17.519531-17.535156s-7.886718-17.511719-17.519531-17.511719h-9.519531zm0 0" fill="#fcc368"/><path d="m120.546875 220.570312h-58.640625l-2.011719 19.550782h83.398438c16.5 0 13.988281 10.183594 16.089843 27.632812l3.769532 31.308594h21.578125l-7.09375-58.941406-2.335938-19.550782zm0 0" fill="#eda93b"/><path d="m120.546875 334.078125h-70.4375l-1.957031 18.734375h96.457031c24.089844 0 23.742187 5.6875 26.398437 27.835938l1.3125 10.96875 2.25 18.734374 1.722657 14.296876h23.539062l-3.972656-33.03125-6.921875-57.539063zm0 0" fill="#eda93b"/><path d="m189.929688 437.984375v18.46875h23.539062v-18.46875c0-7.351563-5.988281-13.335937-13.347656-13.335937h-23.449219c7.300781.03125 13.257813 6.011718 13.257813 13.335937zm0 0" fill="#fcc368"/><path d="m199.449219 456.457031c9.636719 0 17.523437 7.878907 17.523437 17.507813s-7.886718 17.535156-17.523437 17.535156h23.539062c9.636719 0 17.519531-7.90625 17.519531-17.535156s-7.886718-17.511719-17.519531-17.511719h-23.539062zm0 0" fill="#eda93b"/><path d="m99.199219 182.257812c0 4.320313-3.535157 7.878907-7.886719 7.878907h-12.351562c-4.320313 0-7.855469-3.5625-7.855469-7.878907v-4.261718c0-6.125-5.019531-11.144532-11.152344-11.144532h-16.53125c-6.132813 0-11.152344 5.019532-11.152344 11.144532v33.207031c0 5.164063 4.203125 9.367187 9.371094 9.367187h153.925781c5.167969 0 9.375-4.230468 9.375-9.367187v-33.207031c0-6.125-5.023437-11.144532-11.15625-11.144532h-16.527344c-6.132812 0-11.15625 5.019532-11.15625 11.144532v4.261718c0 4.320313-3.53125 7.878907-7.855468 7.878907h-12.351563c-4.351562 0-7.882812-3.5625-7.882812-7.878907v-3.5c0-6.128906-5.023438-11.148437-11.15625-11.148437h-16.5c-6.132813 0-11.15625 5.019531-11.15625 11.148437zm0 0" fill="#ffdda6"/><path d="m186.6875 195.914062v15.144532c0 5.164062-4.234375 9.367187-9.371094 9.367187h-137.25c.523438.117188 1.050782.144531 1.574219.144531h153.925781c5.167969 0 9.375-4.230468 9.375-9.367187v-33.207031c0-6.125-5.023437-11.144532-11.15625-11.144532h-16.527344c5.34375.847657 9.429688 5.488282 9.429688 11.03125zm0 0" fill="#fcc368"/><path d="m120.546875 299.0625h-71.28125c-9.636719 0-17.523437 7.878906-17.523437 17.507812 0 9.628907 7.886718 17.507813 17.523437 17.507813h144.3125c9.640625 0 17.550781-7.878906 17.550781-17.507813 0-9.628906-7.914062-17.507812-17.550781-17.507812zm0 0" fill="#ffdda6"/><path d="m168.085938 299.0625c9.667968 0 17.550781 7.878906 17.550781 17.507812 0 9.601563-7.824219 17.449219-17.402344 17.507813h25.34375c9.640625 0 17.550781-7.878906 17.550781-17.507813 0-9.628906-7.914062-17.507812-17.550781-17.507812zm0 0" fill="#fcc368"/></g></svg>