<svg height="512pt" viewBox="-26 0 512 512" width="512pt" xmlns="http://www.w3.org/2000/svg"><path d="m297.175781 512h-133.976562c-52.5 0-95.210938-42.710938-95.210938-95.210938v-102.234374c0-8.285157 6.71875-15 15-15h294.398438c8.28125 0 15 6.714843 15 15v102.234374c0 52.5-42.710938 95.210938-95.210938 95.210938zm0 0" fill="#ffebd8"/><path d="m377.386719 299.554688h-147.269531v212.445312h67.058593c52.5 0 95.210938-42.710938 95.210938-95.210938v-102.234374c0-8.285157-6.71875-15-15-15zm0 0" fill="#fcd7b0"/><path d="m321.1875 450.582031c-8.285156 0-15-6.71875-15-15v-121.027343c0-8.285157 6.714844-15 15-15s15 6.714843 15 15v121.027343c0 8.28125-6.714844 15-15 15zm0 0" fill="#f4c498"/><path d="m139.1875 450.582031c-8.285156 0-15-6.71875-15-15v-121.027343c0-8.285157 6.714844-15 15-15s15 6.714843 15 15v121.027343c0 8.28125-6.714844 15-15 15zm0 0" fill="#fcd7b0"/><path d="m230.1875 450.582031c-8.285156 0-15-6.71875-15-15v-121.027343c0-8.285157 6.714844-15 15-15s15 6.714843 15 15v121.027343c0 8.28125-6.714844 15-15 15zm0 0" fill="#fcd7b0"/><path d="m230.1875 299.554688c-.023438 0-.046875.003906-.070312.003906v151.019531c.023437 0 .046874.003906.070312.003906 8.285156 0 15-6.71875 15-15v-121.027343c0-8.285157-6.714844-15-15-15zm0 0" fill="#f4c498"/><path d="m118.007812 389.980469c-65.269531-.195313-118.207031-54.15625-118.007812-120.28125.09375-31.453125 12.117188-61.140625 33.847656-83.59375 19.261719-19.902344 44.253906-32.191407 71.261719-35.230469 9.746094-25.09375 26.492187-47.410156 47.914063-63.625 25.082031-18.980469 54.925781-28.964844 86.308593-28.867188 58.417969.175782 110.65625 36.175782 132.546875 90.4375 51.777344 13.71875 88.402344 61.320313 88.234375 116.363282-.199219 66.125-53.460937 119.761718-118.726562 119.566406-22.214844-.066406-43.519531-6.285156-62.152344-18.070312-14.179687 5.835937-29.179687 8.761718-44.703125 8.714843-15.542969-.046875-31.019531-3.234375-45.308594-9.277343-20.488281 15.53125-45.414062 23.941406-71.214844 23.863281zm0 0" fill="#ffb8b1"/><path d="m371.878906 148.820312c-21.890625-54.261718-74.128906-90.261718-132.546875-90.4375-3.085937-.011718-6.160156.082032-9.214843.265626v316.640624c1.46875.0625 2.941406.101563 4.414062.105469 15.527344.046875 30.523438-2.878906 44.703125-8.714843 18.632813 11.785156 39.9375 18.003906 62.152344 18.070312 65.265625.195312 118.527343-53.441406 118.726562-119.566406.167969-55.042969-36.457031-102.644532-88.234375-116.363282zm0 0" fill="#ff9f9e"/><path d="m230.1875 168.40625c-42.445312 0-76.980469-34.953125-76.980469-77.914062 0-21.339844 8.621094-38.277344 24.921875-48.976563 12.984375-8.519531 30.496094-12.839844 52.058594-12.839844s39.074219 4.320313 52.058594 12.839844c16.300781 10.703125 24.921875 27.636719 24.921875 48.976563-.003907 42.964843-34.535157 77.914062-76.980469 77.914062zm0 0" fill="#ff6770"/><path d="m282.242188 41.515625c-12.980469-8.519531-30.492188-12.839844-52.054688-12.839844-.023438 0-.046875 0-.070312 0v139.730469h.070312c42.445312 0 76.976562-34.949219 76.976562-77.910156 0-21.34375-8.617187-38.277344-24.921874-48.980469zm0 0" fill="#f4344f"/><path d="m245.753906 92.914062c-.960937 0-1.933594-.09375-2.914062-.285156-8.128906-1.601562-13.421875-9.488281-11.816406-17.617187 7.648437-38.835938 32.523437-57.257813 52.042968-65.871094 20.132813-8.882813 38.15625-9.140625 40.144532-9.140625 8.285156 0 15 6.714844 15 15 0 8.265625-6.683594 14.96875-14.9375 15-.429688.007812-14.332032.285156-28.960938 6.976562-18.394531 8.414063-29.78125 23.160157-33.855469 43.835938-1.410156 7.148438-7.679687 12.101562-14.703125 12.101562zm0 0" fill="#00c27c"/></svg>