<?xml version="1.0" encoding="iso-8859-1"?>
<!-- Generator: Adobe Illustrator 19.0.0, SVG Export Plug-In . SVG Version: 6.00 Build 0)  -->
<svg version="1.1" id="Capa_1" xmlns="http://www.w3.org/2000/svg" xmlns:xlink="http://www.w3.org/1999/xlink" x="0px" y="0px"
	 viewBox="0 0 512 512" style="enable-background:new 0 0 512 512;" xml:space="preserve">
<polygon style="fill:#66C6B9;" points="512,435.2 486.4,460.8 512,486.4 486.4,512 486.4,512 460.8,486.4 435.2,512 409.6,486.4 
	384,512 358.4,486.4 332.8,512 307.2,486.4 281.6,512 256,486.4 230.4,512 204.8,486.4 179.2,512 153.6,486.4 128,512 102.4,486.4 
	76.8,512 51.2,486.4 25.6,512 0,486.4 25.6,460.8 0,435.2 25.6,409.6 0,384 25.6,358.4 0,332.8 25.6,307.2 0,281.6 25.6,256 
	0,230.4 25.6,204.8 0,179.2 25.6,153.6 0,128 25.6,102.4 0,76.8 25.6,51.2 0,25.6 25.6,0 25.6,0 25.6,0 51.2,25.6 76.8,0 
	102.4,25.6 128,0 153.6,25.6 179.2,0 204.8,25.6 230.4,0 256,25.6 281.6,0 307.2,25.6 332.8,0 358.4,25.6 384,0 409.6,25.6 435.2,0 
	460.8,25.6 486.4,0 512,25.6 486.4,51.2 512,76.8 486.4,102.4 512,128 486.4,153.6 512,179.2 486.4,204.8 512,230.4 486.4,256 
	512,281.6 486.4,307.2 512,332.8 486.4,358.4 512,384 486.4,409.6 "/>
<rect x="83.2" y="83.2" style="fill:#FFFFFF;" width="345.6" height="345.6"/>
<path style="fill:#F05540;" d="M308.267,266.667c0,0,80-48,80-100.267c0-22.4-18.133-40.533-40.533-40.533
	c-18.133,0-33.067,11.733-38.4,27.733c-5.333-16-21.333-27.733-38.4-27.733c-22.4,0-40.533,18.133-40.533,40.533
	C229.333,219.733,308.267,266.667,308.267,266.667z"/>
<path style="fill:#F3705A;" d="M221.867,387.2c0,0,98.133-59.733,98.133-123.733c0-27.733-22.4-50.133-50.133-50.133
	c-22.4,0-40.533,13.867-48,33.067c-7.467-19.2-25.6-33.067-48-33.067c-27.733,0-50.133,22.4-50.133,50.133
	C123.733,329.6,221.867,387.2,221.867,387.2z"/>
<g>
</g>
<g>
</g>
<g>
</g>
<g>
</g>
<g>
</g>
<g>
</g>
<g>
</g>
<g>
</g>
<g>
</g>
<g>
</g>
<g>
</g>
<g>
</g>
<g>
</g>
<g>
</g>
<g>
</g>
</svg>
