<?xml version="1.0" encoding="iso-8859-1"?>
<!-- Generator: Adobe Illustrator 19.0.0, SVG Export Plug-In . SVG Version: 6.00 Build 0)  -->
<svg version="1.1" id="Capa_1" xmlns="http://www.w3.org/2000/svg" xmlns:xlink="http://www.w3.org/1999/xlink" x="0px" y="0px"
	 viewBox="0 0 512 512" style="enable-background:new 0 0 512 512;" xml:space="preserve">
<polyline style="fill:#5A6470;" points="276.092,136.533 54.225,384 131.025,460.8 369.958,238.933 "/>
<rect x="0.973" y="469.327" transform="matrix(-0.7071 0.7071 -0.7071 -0.7071 401.3602 789.4716)" style="fill:#0D2436;" width="72.405" height="17.067"/>
<path style="fill:#36AFAD;" d="M387.025,426.667h-17.067v-99.49l76.8-32.922v52.702l-59.733,25.6V426.667z M387.025,338.423v15.565
	l42.667-18.278v-15.565L387.025,338.423z"/>
<circle style="fill:#238892;" cx="378.458" cy="435.2" r="25.6"/>
<g>
	<path style="fill:#32B1CC;" d="M293.158,460.8c-14.14,0-25.6-11.46-25.6-25.6c0-4.71-3.823-8.533-8.533-8.533
		c-4.71,0-8.533,3.823-8.533,8.533c0,14.14-11.46,25.6-25.6,25.6c-4.71,0-8.533,3.823-8.533,8.533c0,4.71,3.823,8.533,8.533,8.533
		c14.14,0,25.6,11.46,25.6,25.6l0,0c0,4.71,3.823,8.533,8.533,8.533c4.71,0,8.533-3.823,8.533-8.533c0-14.14,11.46-25.6,25.6-25.6
		l0,0c4.71,0,8.533-3.823,8.533-8.533C301.692,464.623,297.869,460.8,293.158,460.8z M259.025,478.131
		c-2.483-3.345-5.453-6.315-8.798-8.798c3.345-2.483,6.315-5.453,8.798-8.798c2.483,3.345,5.453,6.315,8.798,8.798
		C264.469,471.817,261.508,474.786,259.025,478.131z"/>
	<path style="fill:#32B1CC;" d="M241.958,42.667c0-4.71-3.823-8.533-8.533-8.533c-14.14,0-25.6-11.46-25.6-25.6
		c0-4.71-3.823-8.533-8.533-8.533s-8.533,3.823-8.533,8.533c0,14.14-11.46,25.6-25.6,25.6c-4.71,0-8.533,3.823-8.533,8.533
		s3.823,8.533,8.533,8.533c14.14,0,25.6,11.46,25.6,25.6c0,4.71,3.823,8.533,8.533,8.533s8.533-3.823,8.533-8.533
		c0-14.14,11.46-25.6,25.6-25.6C238.136,51.2,241.958,47.377,241.958,42.667z M199.292,51.465c-2.492-3.345-5.453-6.315-8.798-8.798
		c3.345-2.483,6.315-5.453,8.798-8.798c2.483,3.345,5.453,6.315,8.798,8.798C204.736,45.15,201.775,48.119,199.292,51.465z"/>
</g>
<path style="fill:#36AFAD;" d="M37.158,130.381v65.886h17.067v-19.447l59.733-19.908V179.2h17.067V99.098L37.158,130.381z
	 M54.225,158.822v-16.137l59.733-19.917v16.145L54.225,158.822z"/>
<circle style="fill:#7D8D9C;" cx="386.991" cy="128" r="119.467"/>
<g>
	<path style="fill:#FFFFFF;" d="M417.745,57.591c-4.932-2.15-10.086-3.78-15.36-4.855l3.413-16.725
		c6.451,1.323,12.74,3.328,18.773,5.973L417.745,57.591z"/>
	<path style="fill:#FFFFFF;" d="M310.225,128h-17.067c0.06-51.814,42.052-93.807,93.867-93.867V51.2
		C344.623,51.251,310.268,85.606,310.225,128z"/>
</g>
<g>
	
		<rect x="267.561" y="190.672" transform="matrix(-0.7071 0.7071 -0.7071 -0.7071 640.2819 212.6752)" style="fill:#7D8D9C;" width="17.067" height="96.545"/>
	<polyline style="fill:#7D8D9C;" points="71.292,401.067 37.158,435.2 79.825,477.867 113.958,443.733 	"/>
</g>
<g>
	<circle style="fill:#238892;" cx="45.692" cy="213.333" r="25.6"/>
	<circle style="fill:#238892;" cx="122.492" cy="196.267" r="25.6"/>
</g>
<g>
</g>
<g>
</g>
<g>
</g>
<g>
</g>
<g>
</g>
<g>
</g>
<g>
</g>
<g>
</g>
<g>
</g>
<g>
</g>
<g>
</g>
<g>
</g>
<g>
</g>
<g>
</g>
<g>
</g>
</svg>
